<svg id="Layer_1" data-name="Layer 1" xmlns="http://www.w3.org/2000/svg" xmlns:xlink="http://www.w3.org/1999/xlink" viewBox="0 0 186.08 178.51"><defs><style>.cls-1{fill:none;}.cls-2{clip-path:url(#clip-path);}.cls-3{fill:#6d6e71;}.cls-4{fill:#c7c8ca;}.cls-5{fill:#b01129;}.cls-6{fill:#fff;}.cls-7{fill:#09713a;}.cls-8{fill:#296130;}</style><clipPath id="clip-path" transform="translate(0 0)"><rect class="cls-1" x="-376.44" y="-372.49" width="1000" height="1000"/></clipPath></defs><title>canada-cannabyss-logo</title><g class="cls-2"><path class="cls-3" d="M133.91,89.12c0,40.23-8.34,74.24-19.81,85.39a26.18,26.18,0,0,1-4-4.9c9.3-14.5,15.61-45.22,15.61-80.49S121.57,24.91,110.56,8A22,22,0,0,1,114,3.79c9.53,4.45,19.9,40.07,19.9,85.33" transform="translate(0 0)"/><path class="cls-4" d="M129.84,91.56c-.22,33.2-5.83,58.88-11.2,69.38-1.81,3.53-2.76,6.41-6.65,11.3a30.09,30.09,0,0,1-1.87-2.63c9.26-14.75,15-43,15.47-78.3.45-35.43-4.21-66.83-15.16-83.46.71-.91,1-1.08,1.67-1.95a17.78,17.78,0,0,1,2.22,2.32c2.76,3.38,4.54,7.57,6.5,13.45,4.55,13.68,9.25,34.11,9,69.89" transform="translate(0 0)"/><path class="cls-5" d="M86.51,119.13C83,109.72,83.43,102,85,92.42c0-.32-.21-10.44-.1-10.71-1.17-7.89.12-7,.58-15,.07-1.28-.4-5.23.39-5.87.93-7.57-.38-6.15,1.09-13.65.09-.44,1.92-4.11,2.1-4.45l-.39-.4c-2.61,1.52-.71,1.92-2.16-.81L73.61,16.43,60.76,41.5c-1.47,2.73-4.08,2.48-6.69,1l-9.31-5L51.7,75.92c1.45,7-3.22,7-5.53,4l-16.25-19-2.64,9.66a3.14,3.14,0,0,1-3.65,2.28L3.09,68.33l5.4,20.51c1.18,4.32,2,6.45-1.17,7.65L0,100.09l35.36,30a5,5,0,0,1,1.61,5l-3.09,10.62L68,141.64a3.1,3.1,0,0,1,3.34,2.81l.1,6.85h6.66V144a2.64,2.64,0,0,1,2.47-2.5c3.82.46,5.9.54,9.56,1,.19-.9-3.92-13.63-3-18.06-1.71.24-.58-5.19-.62-5.29" transform="translate(0 0)"/><path class="cls-3" d="M105.79,174.65a15.28,15.28,0,0,0,4.09,2.92,9.35,9.35,0,0,1-8.17,0c-13.51-6.3-23.88-43.45-23.88-88.32S88.2,7.25,101.71,1a9.26,9.26,0,0,1,8.17,0,14.64,14.64,0,0,0-4.09,2.92C94.33,15,86,49,86,89.25s8.34,74.25,19.8,85.4" transform="translate(0 0)"/><path class="cls-4" d="M105.79,174.65a15.28,15.28,0,0,0,4.09,2.92,5.52,5.52,0,0,1-3.71.15,9.91,9.91,0,0,1-3.72-2.18c-10.38-8.7-20-35.57-20.39-84.69C81.69,39.25,92,13,102.73,3.35A11.59,11.59,0,0,1,108.6.78a3.36,3.36,0,0,1,1.28.17c-2.2,1.19-1.1.53-2,1.17a28,28,0,0,0-5.19,5.5C92.25,22.33,86.1,54.21,86.1,90c0,40.23,8.23,73.46,19.69,84.61" transform="translate(0 0)"/><path class="cls-6" d="M186.06,79a2,2,0,0,0-2-2.36,2.4,2.4,0,0,0-.46.05,93.31,93.31,0,0,0-12.3,3.76,1.92,1.92,0,0,0-1-1,2,2,0,0,0-.83-.18,2.19,2.19,0,0,0-.82.17l-4.93,2.22,0-.08A2,2,0,0,0,161.18,80,16.57,16.57,0,0,0,155,83.08l0-.15a2,2,0,0,0-.95-1.36,2,2,0,0,0-1-.28,2.19,2.19,0,0,0-.63.1,12.46,12.46,0,0,0-5.65,4.06,2,2,0,0,0-1.37-1.37,1.75,1.75,0,0,0-.55-.08,2,2,0,0,0-1,.25,13.89,13.89,0,0,0-5.38,5.45,2,2,0,0,0-.89-.21,2,2,0,0,0-1.07.32,16.92,16.92,0,0,0-5.49,6.06,2.1,2.1,0,0,0-.43-.05,2,2,0,0,0-.67.12c-2.45.87-3.83,2.94-4.94,4.65a2,2,0,0,0-.44,0c-1.24,0-1.74.69-3.12,2.56-.81,1.1-1.5,2.25-2.18,3.36l-.77.58a3.62,3.62,0,0,0-2.2,1.45c-.59.89-1.12,1.8-1.62,2.72l0-.08a2.6,2.6,0,0,0-.1-.25c0-.6.08-1.37.11-2,1-1.76,2-3.58,2.85-5.5a4.53,4.53,0,0,0-.25-3.56c.15-.32.31-.65.47-1,.63-1.32,1.28-2.67,1.83-4.11,1.68-4.44.7-4.51.1-5l.16-.35c1-2.11,2.07-4.51,1.4-7.61a1.93,1.93,0,0,0-.75-1.18,19.39,19.39,0,0,0,2.6-9.21,2,2,0,0,0-1.38-1.89,16.46,16.46,0,0,0,2.2-9.16A2,2,0,0,0,123.2,59a2,2,0,0,0-1.31-.48h-.14l-1.11.07a14.65,14.65,0,0,0,.58-8.66,2,2,0,0,0-1-1.29,2.14,2.14,0,0,0-.89-.2,2.07,2.07,0,0,0-.77.15l-.77.32a19.26,19.26,0,0,0-.77-8.65,2,2,0,0,0-1.06-1.22,2,2,0,0,0-.85-.19,2.07,2.07,0,0,0-.77.15l-.55.23-1-6.87a2,2,0,0,0-.89-1.38,2,2,0,0,0-1.08-.32,2,2,0,0,0-.55.08l-.15,0a109.33,109.33,0,0,0-4.27-15.08,2,2,0,0,0-1.88-1.33h-.16A2,2,0,0,0,101.91,16L99.13,31H99a1.93,1.93,0,0,0-.63-.1,2.07,2.07,0,0,0-1,.26,2,2,0,0,0-1,1.49c-.2,1.55-.31,3.1-.49,6L95,38.36a1.94,1.94,0,0,0-.71-.13,2,2,0,0,0-.86.19,2,2,0,0,0-1,1.18,10.87,10.87,0,0,0-.29,5.53,1.14,1.14,0,0,0-.23.15,2,2,0,0,0-.81,1.6V113.5a2,2,0,0,0,.06.49,2.07,2.07,0,0,0-.06.5v2.6a1.48,1.48,0,0,0,.19.71l.34.61a9.62,9.62,0,0,1,.67,1.31,2,2,0,0,0-1.2,1.82v12.65l2,3.54c0,.12,1.93,1.85-.19,2.2,0,.1,1,.86,1,1v4.26c0,.4,0,1.8.33,2.07l.06,1.35c.37.33-.16,1.16.32,1.16s.72-1.69,1-1.87c.76-.44-.07,2.54.17,2a3.89,3.89,0,0,0,.89-1c.13-.2.25-.41.36-.62,0,2.06.06,4,.16,5.55a1.45,1.45,0,0,0,1.45,1.36h2.75a2,2,0,0,0,1.44-.61,2,2,0,0,0,.56-1.45c-.05-1.86-.05-3.81,0-5.7a8.6,8.6,0,0,0,.65.93,2,2,0,0,0,.93.62c.12.22.24.43.37.63a3.49,3.49,0,0,0,.88,1,3.44,3.44,0,0,0,1.4,1.59,1.89,1.89,0,0,0,.44.19,4.38,4.38,0,0,0,1.62,1.75,2,2,0,0,0,.6.23,4.89,4.89,0,0,0,1.37,1.4,1.93,1.93,0,0,0,1.12.35,2.19,2.19,0,0,0,.36,0,7.06,7.06,0,0,0,1.42,1,1.94,1.94,0,0,0,.93.23h0a3.32,3.32,0,0,0,.76.45,1.87,1.87,0,0,0,.83.19,2,2,0,0,0,.59-.09l.33.24a1.92,1.92,0,0,0,1.17.39,2,2,0,0,0,.49-.06l2.51,1.6a2,2,0,0,0,1.08.31,2,2,0,0,0,2-1.64,1.59,1.59,0,0,0-.14-1.13,32.16,32.16,0,0,0-1.75-3,2,2,0,0,0-.39-1.6l-.41-.52a2,2,0,0,0-.21-1.49,6.18,6.18,0,0,0-.82-1.16,2,2,0,0,0-.28-1.4,5.17,5.17,0,0,0-.65-.79l.14,0,.16.1c.71.41,1.44.84,2.25,1.23a4.7,4.7,0,0,0,2.16.73,2.13,2.13,0,0,0,1-.22,7.44,7.44,0,0,0,3.57,1.09,5.22,5.22,0,0,0,.78-.06,2.14,2.14,0,0,0,.56-.17,11.32,11.32,0,0,0,4.94,1.66h.15a2,2,0,0,0,1.16-.37,9.59,9.59,0,0,0,4.65,1.3h0a2,2,0,0,0,1.4-.58,1.89,1.89,0,0,0,.48-.74,8.71,8.71,0,0,0,2.65.43,7.7,7.7,0,0,0,1.35-.12,2,2,0,0,0,1.36-.94,1.75,1.75,0,0,0,.26-.7,11.27,11.27,0,0,0,1.16.06,12.32,12.32,0,0,0,2.71-.31,2,2,0,0,0,1.55-1.76l2.79-.19a2,2,0,0,0,1.45-.79,2.09,2.09,0,0,0,.35-.7,63.38,63.38,0,0,0,7.89-1.62,1.59,1.59,0,0,0,.92-.64,2,2,0,0,0-1.07-3.18l-7.24-2a1.92,1.92,0,0,0-.19-.7,2,2,0,0,0-1.39-1.1c-.65-.13-1.29-.24-2.25-.38a2,2,0,0,0-.12-.87,2,2,0,0,0-1.09-1.14,6.21,6.21,0,0,0-2.24-.5,2,2,0,0,0-1.19-1.2,11.8,11.8,0,0,0-4.07-.78h-.29a2,2,0,0,0-1.54-1.87,8,8,0,0,0-1.84-.21,11.37,11.37,0,0,0-2.53.32,2,2,0,0,0-1.13-.89,6.25,6.25,0,0,0-1.88-.28,9.83,9.83,0,0,0-3.06.57,2,2,0,0,0-1-.76,4.69,4.69,0,0,0-1.43-.22,6.07,6.07,0,0,0-2.28.49c-.09,0,.51-.13.42-.15-.33-.09.29-.36-.08-.36l-1.73.31a21.26,21.26,0,0,0,6.27-1.82,2,2,0,0,0,1.11-2.16l.51-.12c1.27-.3,2.58-.61,3.88-1a7.11,7.11,0,0,0,2.72-1.43,2.09,2.09,0,0,0,.41-.54,7.49,7.49,0,0,0,5.08-2.06,2,2,0,0,0,.5-1.94c2.45-.4,5.16-.93,7.26-3.06a2,2,0,0,0,.46-2.08,13.82,13.82,0,0,0,6.89-3.41,1.46,1.46,0,0,0,.19-1.82l-.74-1.14a16,16,0,0,0,6.11-4.46,2,2,0,0,0,.26-2.29,9.19,9.19,0,0,0,3.12-2.47A2,2,0,0,0,173.6,96a2,2,0,0,0-.8-1.35l-.25-.18c1.78-1.32,2.76-2.06,3.71-2.86a2,2,0,0,0,.71-1.63,2,2,0,0,0-.57-1.3L185.56,80a1.58,1.58,0,0,0,.5-1" transform="translate(0 0)"/><path class="cls-7" d="M108.32,135h.05l0,0" transform="translate(0 0)"/><path class="cls-7" d="M107.67,139.09l0,0,0,0h0" transform="translate(0 0)"/><path class="cls-7" d="M108.29,138.38l0,0,0,0Z" transform="translate(0 0)"/><path class="cls-8" d="M102.21,141.56a61.85,61.85,0,0,0-.41,10l-3,0c.22-3.81.15-5.55.2-9.22.08,0,.17.16.24.08.24-.29.29-.82.48-1.14s.18-.24.47-.52a1.28,1.28,0,0,0,.16-.21,5.55,5.55,0,0,0,.46-1.08c.13.31.26.71.39,1.08h.43c0,.25.58.73.54,1" transform="translate(0 0)"/><path class="cls-7" d="M104.49,136.27l0,.06h0Z" transform="translate(0 0)"/><path class="cls-7" d="M108.27,138.36l0,0h0Z" transform="translate(0 0)"/><path class="cls-7" d="M110,137.35v.05a.64.64,0,0,1,0-.07l0,0" transform="translate(0 0)"/><path class="cls-8" d="M173.71,88.44l10.35-9.81a88.56,88.56,0,0,0-14,4.49l-.57-1.89L162.2,84.5l-.47-2.6a14.31,14.31,0,0,0-7.95,5.37c-.25-1.4-.48-2.6-.73-4-3,1-4.75,3.33-6.56,5.83-.59-1.09-1-2-1.64-3.13-3,1.67-4.77,4.47-5.93,7.51-.51-.79-.84-1.31-1.3-2-2.94,1.88-4.56,4.74-6.11,7.69l-.89-1.36c-2,.69-3.08,2.54-4.18,4.24-.23.36-.66.89-.92.84-1.27-.23-.57-1.18-2.46,1.39-1,1.43-1.91,3-2.87,4.49-.84.09-1.84.24-2.22.82-1.19,1.79-2.15,3.74-3.19,5.63-.17.32-.29.66-.48,1.08-.94-.69-1.8-.73-2.3.23-.81,1.57-1.48,3.22-2.22,4.83a3.3,3.3,0,0,1-.52.94c-.5.54-1.22.92-1.59,1.53q-1.38,2.25-2.67,4.56h-.07c1.09-2.06,2.15-4.17,3.15-6.26a13.5,13.5,0,0,0,.51-2.59,4.07,4.07,0,0,1,.59-1.13c1.14-1.78,2.36-3.52,3.41-5.35.63-1.11,0-2-1.27-2.44.31-.47.57-.81.77-1.19,1.23-2.26,2.56-4.48,3.58-6.84.33-.75-.17-1.86-.62-2.75.88-1.93,1.88-3.8,2.64-5.79,1.34-3.54.85-2.24-.21-3.36-.21-.23,0-1,.25-1.48,1-2.21,2.12-4.27,1.54-7h-1.94c2-3.51,3.77-6.75,3.74-10.8h-2.85c2.29-3.5,4-6.81,3.68-10.91-1.48.11-2.72.15-4.19.26,1.32-3.43,2.55-6.65,1.58-10.34l-4.45,1.84a17.08,17.08,0,0,0,.23-11.43l-2.9,1.21c-.48-3.09-.94-6.15-1.44-9.39l-2.26.65a163,163,0,0,0-5.09-18.54C96.44,26.35,90,53.46,90,88.26c0,17.71,2.9,49.12,6.92,57.35a7.12,7.12,0,0,0,.7-1.65l.45.33c.31-.67.59-1.3.89-1.92,0,0,0,0,.09,0s.17.16.24.08c.24-.29.29-.82.48-1.14s.18-.24.47-.52a1.28,1.28,0,0,0,.16-.21,5.55,5.55,0,0,0,.46-1.08c.13.31.26.71.39,1.08h.43c0,.25,0,.51,0,.78a.85.85,0,0,0,.11.14c.29.28.27.19.47.52s.24.85.48,1.14c.1.12.26-.2.33-.06.3.62.59,1.25.9,1.92l.44-.33a6.52,6.52,0,0,0,1.2,2.38l.47-.3c.06.1.12.18.17.27.26.5.5,1,.8,1.48a1.63,1.63,0,0,0,.46.52l.2-.23c.26.58.31,1.28.95,1.66l.53-.47c.45.9.68,1.9,1.54,2.41l.49-.53a5.82,5.82,0,0,0,1.59,2.24l.76-.82a3.92,3.92,0,0,0,1.94,2c.14-.25.24-.45.37-.69a3,3,0,0,0,1.27,1.33c.13-.31.24-.57.35-.86,1,.79,1.34,1.11,1.75,1.4,0-.13.34-.39.38-.5l3.69,2.36a27,27,0,0,0-2.38-3.85l.52-.31-1.52-1.92.74-.33a4.4,4.4,0,0,0-2.19-2l1.13-.51a4.2,4.2,0,0,0-2.23-1.52c.28-.26.53-.47.81-.72a4.18,4.18,0,0,0-2.68-1.21l.5-.54a5.71,5.71,0,0,0-2.74-1.24l.34-.37a2.81,2.81,0,0,0-1.58-.93c-.12,0-.31-.13-.32-.21,0-.4.31-.26-.59-.63-.51-.2-1-.35-1.56-.52-.08-.24-.2-.53-.4-.6-.4-.14-.81-.25-1.22-.35h.71v-.34l.55.33a6.77,6.77,0,0,0,1.39.39,2.15,2.15,0,0,1,.58.38c.92.69,1.81,1.43,2.76,2.08.58.4,1.06.11,1.39-.58a6.34,6.34,0,0,0,.61.47c1.18.77,2.32,1.59,3.56,2.25.39.22,1,0,1.52-.21,1,.56,2,1.19,3,1.68,1.87.89,1.18.57,1.83,0,.14-.1.54.07.78.2a6,6,0,0,0,3.71,1.15c0-.33.05-.63.09-1.06a12.11,12.11,0,0,0,5.86,2.53c.05-.55.08-.94.13-1.55a8.85,8.85,0,0,0,5.71,2.47c0-.81,0-1.49,0-2.29,1.8.87,3.49,1.68,5.55,1.32l-.81-2.51a9.28,9.28,0,0,0,6.2.63c-.22-.69-.39-1.21-.52-1.63l5.16-.36c-.11-.6-.19-1-.25-1.26a56.6,56.6,0,0,0,9.41-1.75l-8.94-2.43c.1-.21.09-1,.23-1.31-1-.21-2.09-.36-4.68-.73l.85-1.77a6.47,6.47,0,0,0-3.9-.11c.19-.53.36-1,.56-1.56a8.28,8.28,0,0,0-5.86-.22c.07-.85.13-1.56.19-2.36-2.05-.49-3.81.25-5.75.7,0-.47.08-.92.13-1.52-2-.62-3.93.45-6,1,0-.51,0-1,0-1.49-1.49-.47-2.67.46-4,.88,0-.1.06-.57.07-.66a3.42,3.42,0,0,0-1.46,0c-1.17.19-2.31.55-3.47.84-.2.05-.41.08-.67.13-.06-.39-.11-.73-.18-1.17a14,14,0,0,0-5.44,1.52c0-.26,0-.47-.08-.73a4.17,4.17,0,0,0,1.46-.35c.47-.22-.41-1,.07-1.08,2.2-.46,4.42-.86,6.78-1.3-.3-.73-.45-1.11-.69-1.68a21.44,21.44,0,0,0,8.47-1.9c-.23-.66-.4-1.14-.59-1.72.38-.12.68-.24,1-.31,1.77-.45,3.58-.8,5.31-1.39a5.45,5.45,0,0,0,2-1c-.09-.11-.5-.72-.58-.84,2-.37,4.3,0,6-1.69-.36-.69-.71-1.33-1.07-2,3.2-.72,6.54-.65,8.84-3l-1.27-2c3-.8,5.88-1.08,8.3-3.23l-2-3.07a12.68,12.68,0,0,0,7.79-4.56l-1.9-1.7c2.07-.67,3.87-1.31,5.21-3l-2.45-1.79c3.24-2.38,4.57-3.36,5.81-4.4-.37-.25-1-1.4-1.27-1.6" transform="translate(0 0)"/></g></svg>