<svg xmlns="http://www.w3.org/2000/svg" viewBox="0 0 255.41 228.22"><defs><style>.cls-1{fill:#18840f;}.cls-2{fill:none;}</style></defs><title>new canada cannabyss logo6</title><g id="Layer_9" data-name="Layer 9"><polyline class="cls-1" points="127.02 173.82 124.14 228.22 127.79 228.22 127.79 173.82 127.02 173.82"/></g><g id="Layer_9_copy" data-name="Layer 9 copy"><polyline class="cls-1" points="128.56 173.82 131.44 228.22 127.79 228.22 127.79 173.82 128.56 173.82"/></g><g id="Layer_5_copy" data-name="Layer 5 copy"><polygon class="cls-1" points="255.41 139.05 196.48 172.19 133.21 173.74 255.41 139.05"/><polygon class="cls-1" points="133.22 173.74 187.87 141.81 255.41 139.06 133.22 173.74"/></g><g id="Layer_7_copy" data-name="Layer 7 copy"><polygon class="cls-1" points="133.62 173.59 196.54 172.13 218.77 197.79 133.62 173.59"/></g><g id="Layer_5_copy_2" data-name="Layer 5 copy 2"><polygon class="cls-1" points="0 139.05 58.93 172.19 122.2 173.74 0 139.05"/><polygon class="cls-1" points="122.2 173.74 67.55 141.81 0 139.06 122.2 173.74"/></g><g id="Layer_7_copy_2" data-name="Layer 7 copy 2"><polygon class="cls-1" points="121.8 173.59 58.88 172.13 36.65 197.79 121.8 173.59"/></g><g id="Layer_2" data-name="Layer 2"><polyline class="cls-1" points="127.79 160.29 100.51 108 127.79 0"/><polyline class="cls-1" points="127.79 160.29 155.07 108 127.79 0"/></g><g id="Layer_3_copy" data-name="Layer 3 copy"><polygon class="cls-1" points="129.31 171.55 159.62 107.88 246.02 44.22 129.31 171.55"/><polygon class="cls-1" points="129.33 171.57 190.11 135.82 246 44.2 129.33 171.57"/></g><g id="Layer_3_copy_2" data-name="Layer 3 copy 2"><polygon class="cls-1" points="126.34 171.55 96.02 107.88 9.62 44.22 126.34 171.55"/><polygon class="cls-1" points="126.31 171.57 65.54 135.82 9.64 44.2 126.31 171.57"/><polygon class="cls-2" points="127.79 171.55 124.14 207.95 127.79 207.95 127.79 171.55"/></g></svg>