<svg id="Layer_1" data-name="Layer 1" xmlns="http://www.w3.org/2000/svg" viewBox="0 0 547.16 547.16"><defs><style>.cls-1,.cls-2{fill:#fff;}.cls-1{fill-rule:evenodd;}.cls-3{fill:#1e8541;}</style></defs><title>interac</title><path class="cls-1" d="M537.83,493.79a44,44,0,0,1-44,44H53.37a44,44,0,0,1-44-44V53.37a44,44,0,0,1,44.05-44H493.79a44,44,0,0,1,44,44Z"/><path class="cls-2" d="M493.79,9.32a44.06,44.06,0,0,1,44,44.05V493.8a44,44,0,0,1-44,44H53.37a44,44,0,0,1-44-44V53.37a44,44,0,0,1,44-44H493.79m0-9.32H53.37A53.43,53.43,0,0,0,0,53.37V493.8a53.44,53.44,0,0,0,53.37,53.36H493.79a53.43,53.43,0,0,0,53.37-53.36V53.37A53.42,53.42,0,0,0,493.79,0"/><path class="cls-3" d="M304.42,279.29l0-94.64,24.7-5.85v12.4s6.39-16.31,21.23-20.11c4.58-1.14,6.88-.46,6.88-.46v24.15a34.35,34.35,0,0,0-12.94,2.7c-9.13,3.61-13.72,11.46-13.72,23.47l0,52.24Z"/><path class="cls-3" d="M174.2,310.05s-4-6-4-27.31V235.62l-12.71,3v-19.4l12.73-3V195.07l26.27-6.19V210l18.55-4.4V225l-18.55,4.41s0,38.59,0,48c0,21.81,5.79,26,5.79,26Z"/><path class="cls-3" d="M217.79,253.76c0-16.83,2.39-29.09,7.54-38.52,6.11-11.17,16.15-18.46,30.77-21.78,28.82-6.55,39.21,10.5,38.8,33.36-.14,8.18-.11,12.17-.11,12.17L244,250.91v.83c0,16,3.36,23.56,13.48,21.41,8.75-1.84,11.18-7.33,11.86-14.09.13-1.11.17-3.88.17-3.88l23.79-5.7s.05,2,0,4.12c-.21,9.09-2.85,31.63-35.9,39.43-31.31,7.44-39.66-11.69-39.66-39.27m39.36-42.68c-8.41,1.91-12.81,10.15-13,23.83l25.55-6.08c0-.62,0-2,0-4.13,0-10.31-3.24-15.75-12.58-13.62"/><path class="cls-3" d="M446.08,198.42c-1-28.82,6.49-51.7,38.63-59,20.52-4.66,28.3.67,32.24,5.82,3.78,4.92,5.25,11.55,5.25,20.83l0,1.72-25.17,6s0-3.4,0-3.5c0-11-3-15.21-11-13.2-9.51,2.38-13.36,11.41-13.36,29.36,0,6.38,0,7.52,0,8.38,0,18.24,2.49,26.6,13.45,24.3,9.51-2,10.81-10.32,11-17.63,0-1.16.07-4.84.07-4.84l25.11-5.93s0,1.87,0,3.92c-.07,23.92-12.67,39-36.31,44.49-32.54,7.64-38.92-11.18-39.92-40.73"/><path class="cls-3" d="M359.11,238.76c0-21.91,12.87-28.84,32.19-36.84,17.38-7.18,17.74-10.75,17.82-17,.1-5.25-2.33-9.75-11-7.55-7.95,2-10.06,7.79-10.48,12.39a42.49,42.49,0,0,0-.16,4.86l-24.37,5.75A48.4,48.4,0,0,1,364.81,186c3.89-13.1,15.46-21.92,35.41-26.54,25.91-6,34.56,5.4,34.61,23.11v41.91c0,20.27,3.75,23.23,3.75,23.23l-23.92,5.67a52.86,52.86,0,0,1-3.22-8.6s-5.24,13.19-23.3,17.44c-19,4.47-29-7.27-29-23.41M409,208.84a89.93,89.93,0,0,1-12.74,7.45c-8,3.9-11.58,8.71-11.58,16.1,0,6.42,4,10.64,11.19,8.84C403.58,239.28,409,232.05,409,222Z"/><path class="cls-3" d="M36.88,376.38a15.19,15.19,0,0,1-12.71-23.46l.17-.2.28-.07,35.72-8.43v27.12l-.56.13c-8.1,1.95-17.77,4.17-19.78,4.58a14,14,0,0,1-3.12.33"/><path class="cls-3" d="M36.88,411.09A15.17,15.17,0,0,1,21.72,396a14.92,14.92,0,0,1,2.45-8.25l.17-.27.28-.06,35.72-8.43v27.13l-.56.14c-8.1,2-17.77,4.2-19.78,4.59a16,16,0,0,1-3.12.29"/><path class="cls-3" d="M36.88,445.87A15.18,15.18,0,0,1,21.72,430.7a14.92,14.92,0,0,1,2.45-8.25l.17-.28,36-8.48v27.13l-.56.14c-8.55,2.07-18.05,4.21-19.78,4.6a16.84,16.84,0,0,1-3.12.31"/><polygon class="cls-3" points="32.68 343.14 32.67 191.35 60.34 184.81 60.34 336.59 32.68 343.14"/><path class="cls-3" d="M101.61,330.22a17.08,17.08,0,0,0-34.15,0l0,141.88a46.29,46.29,0,0,0,46.21,46.23c12.93,0,48.33-.06,48.33-.06V459.08c0-32.33,0-65.25,0-66a22.35,22.35,0,0,0-9.93-18.61L109,345.22s0,63.53,0,66.43a3.67,3.67,0,1,1-7.33,0c0-.71-.09-72.65-.09-81.43"/><path class="cls-3" d="M124.67,224.37a37.37,37.37,0,0,0-24.64,19V232.75l-24.91,5.89,0,68.14a25.47,25.47,0,0,1,26.23,4.58v-44c0-10.54,5.26-19,12.74-20.6,5.64-1.25,10.34.78,10.34,10.81l0,64.19,26.24-6.16v-67.9c0-16.46-6.32-28-26-23.34"/><path class="cls-3" d="M506,127.22A16.23,16.23,0,1,1,522.24,111,16.24,16.24,0,0,1,506,127.22m0-30.41A14.19,14.19,0,1,0,520.21,111,14.22,14.22,0,0,0,506,96.81"/><path class="cls-3" d="M500.11,101.33h7c2.79,0,5,1.39,5,5.09,0,2.57-1.15,4.55-3.31,4.89v0c2,.2,3,1.28,3.1,4.07,0,1.26.05,2.81.11,4a2,2,0,0,0,1,1.7h-3.57a3,3,0,0,1-.54-1.75c-.12-1.19-.09-2.3-.14-3.74-.05-2.17-.71-3.11-2.89-3.11h-2.57v8.6h-3.18Zm5.69,8.83a2.91,2.91,0,0,0,3.16-3.23c0-2.11-.89-3.2-3-3.2h-2.69v6.43Z"/></svg>